<svg xmlns="http://www.w3.org/2000/svg" viewBox="0 0 576 65"><defs><style>.cls-1{fill:#1f2a36;}.cls-2{fill:#455c76;}.cls-3{fill:#a3a097;}.cls-4{fill:#455c5b;}.cls-5{fill:#8c99a5;}</style></defs><title>Asset 3</title><g id="Layer_2" data-name="Layer 2"><g id="Layer_1-2" data-name="Layer 1"><polygon class="cls-1" points="115 65 0 65 40 0 155 0 115 65"/><polygon class="cls-2" points="230 65 115 65 155 0 270 0 230 65"/><polygon class="cls-3" points="345 65 230 65 270 0 385 0 345 65"/><polygon class="cls-4" points="460 65 345 65 385 0 500 0 460 65"/><polygon class="cls-5" points="575 65 460 65 500 0 576 0 575 65"/><polygon class="cls-5" points="0 65 0 65 0 0 40 0 0 65"/></g></g></svg>