<svg xmlns="http://www.w3.org/2000/svg" viewBox="0 0 72.041 64.736"><defs><style>.a{fill:#1f2a36;}</style></defs><g transform="translate(0 0.002)"><g transform="translate(0 -0.002)"><path class="a" d="M.025,19.786a7.3,7.3,0,0,1,3.646-6.3L25.4.967a7.3,7.3,0,0,1,7.279.008l3.382,1.957L39.4,1.007a7.334,7.334,0,0,1,7.313.007L68.39,13.559a7.336,7.336,0,0,1,3.651,6.335l-.024,25.043a7.334,7.334,0,0,1-3.662,6.329L46.657,63.76a7.325,7.325,0,0,1-7.313-.007l-3.365-1.947-3.36,1.938a7.3,7.3,0,0,1-7.277-.007L3.634,51.173A7.3,7.3,0,0,1,0,44.866ZM36.6,57.571l3.051,2.121,1.53.885a3.662,3.662,0,0,0,3.646,0l21.7-12.5a3.655,3.655,0,0,0,1.826-3.155l.024-25.043a3.656,3.656,0,0,0-1.816-3.152L44.877,4.185a3.655,3.655,0,0,0-3.646,0l-1.507.868L35.459,7.511,19.537,16.684a3.655,3.655,0,0,0-1.825,3.155l-.025,25.043a3.294,3.294,0,0,0,2.434,3.159ZM5.471,48,27.178,60.559a3.626,3.626,0,0,0,3.612,0l1.522-.873L17.67,51.213a7.334,7.334,0,0,1-3.65-6.335l.024-25.043a7.335,7.335,0,0,1,3.662-6.329L32.394,5.047l-1.549-.891a3.589,3.589,0,0,0-.879-.364,3.648,3.648,0,0,0-.93-.121,3.6,3.6,0,0,0-1.8.481L5.5,16.663A3.622,3.622,0,0,0,3.692,19.8L3.667,44.874A3.621,3.621,0,0,0,5.471,48Z" transform="translate(0 0.002)"/><path class="a" d="M36.17,78.906c0,1.29,1.816,2.993,2.931,3.64l20.884,12.4.968.441c1.118.642,2,.2,3.123-.441l3.066-1.926-15.52-8.871A6.391,6.391,0,0,1,48.174,78.3V53.225a6.232,6.232,0,0,1,3.449-5.741l15.52-9.072-2.491-2.041c-.276-.16-1.033.082-1.341,0a6.769,6.769,0,0,0-1.274,0,4.612,4.612,0,0,0-2.05.517l-21.9,12.828a4.373,4.373,0,0,0-1.916,3.509Z" transform="translate(-33.383 -33.427)"/><path class="a" d="M267.74,524.64Z" transform="translate(-241.238 -472.709)"/><path class="a" d="M632.76,227.5Z" transform="translate(-570.127 -204.981)"/><path class="a" d="M156.65,129.35h0Z" transform="translate(-141.144 -116.546)"/><path class="a" d="M245.31,180.41Z" transform="translate(-221.028 -162.552)"/><path class="a" d="M286.319,226.93h2.969l.025-6.77h4.211a8.5,8.5,0,0,0,2.931-.555,10.918,10.918,0,0,0,2.879-1.6,7.91,7.91,0,0,0,2.244-2.813,8.749,8.749,0,0,0,.876-3.959,8.9,8.9,0,0,0-.876-3.974,7.822,7.822,0,0,0-2.24-2.83,10.994,10.994,0,0,0-2.863-1.6,8.345,8.345,0,0,0-2.914-.556h-7.208l-3.044-.042.046,21.7-.046,3Zm9.234-13.474a3.26,3.26,0,0,1-1.988.741h-4.248v-5.962h4.211a3.267,3.267,0,0,1,2.021.757,2.619,2.619,0,0,1,.977,2.206A2.655,2.655,0,0,1,295.553,213.456Z" transform="translate(-255.267 -182.212)"/><path class="a" d="M521.026,227.275h-5.07V208.111l-3.276,1.134v-4.926l4.017-1.659h4.33Z" transform="translate(-461.933 -182.6)"/></g></g></svg>