<svg xmlns="http://www.w3.org/2000/svg" viewBox="0 0 604.89 470.28">
    <title>no-type</title>
    <g id="Layer_2" data-name="Layer 2">
        <g id="Layer_1-2" data-name="Layer 1" fill="#1F2A36">
            <path d="M604.89,470.18c-1,0-1.92.05-2.88.05H417a9.61,9.61,0,0,0-1.2,0,2.73,2.73,0,0,1-3-1.7c-2.19-4-4.53-7.91-6.81-11.86q-4.06-7.06-8.15-14.13c-.39-.68-.74-1.38-1.34-2.48,5-.05,9.66,0,14.33,0H553.06l-219.39-380c-5.45,9.21-10.55,18.2-15.72,27.13s-10.39,18-15.59,27L286.64,141.4l-15.59,27c-5.19,9-10.38,18-15.7,27.18-.46-.68-.78-1.1-1-1.55-5.12-8.86-10.2-17.74-15.39-26.57a3.17,3.17,0,0,1,0-3.69Q285.72,82.89,332.41,2c.32-.55.67-1.07,1.23-2,.6,1,1.09,1.74,1.55,2.53l62.73,108.64q102.49,177.51,205,355c.68,1.16,1.33,2.34,2,3.51Z"/>
            <path d="M32.85,365.36H0q81.77-147,163.43-293.72c.63,1.06,1.11,1.83,1.55,2.62q29.4,52.81,58.78,105.63c8.24,14.82,16.55,29.59,24.7,44.45q31.87,58.16,63.63,116.37,19.23,35.15,38.49,70.26c.38.69.8,1.35,1.43,2.41l69-109.57a14,14,0,0,1,.92,1.25c4.63,8.76,9.2,17.56,13.91,26.28.8,1.47.22,2.36-.47,3.45l-49.59,78.77-33.87,53.8c-.46.74-1,1.46-1.65,2.55C287.92,356.77,226.7,243.36,163.44,130.53Q98,248.21,32.85,365.36Z"/>
        </g>
    </g>
</svg>