<svg xmlns="http://www.w3.org/2000/svg" viewBox="0 0 660.85 470.54"><title>type</title><g id="Layer_2" data-name="Layer 2"><g id="Layer_1-2" data-name="Layer 1"><path d="M476,471.2c-.37-.79-.67-1.61-1.11-2.36q-7.29-12.68-14.62-25.34c-.43-.74-.8-1.51-1.33-2.52H614.81c.15-.25.2-.31.23-.38s.08-.17.06-.21Q506.22,251.65,397.31,62.93c-.35-.61-.75-1.19-1.29-2.06Q356.87,128.69,318,196.07c-1.47-1.36-12.51-20.06-17.58-29.72L396.05.66c.71,1.2,1.26,2.11,1.8,3Q451.28,96.23,504.7,188.76q80.54,139.47,161,279c.62,1.08,1.62,2,1.34,3.48Z" transform="translate(-6.27 -0.66)"/><path d="M225.94,131.42c-.62,1-1,1.7-1.42,2.38q-56.16,100.9-112.3,201.83c-5.32,9.57-10.53,19.21-15.74,28.84a2.73,2.73,0,0,1-2.74,1.75c-9.76-.07-19.52,0-29.28,0-.53,0-1-.09-1.95-.17L225.85,72.46c.6,1,1.06,1.67,1.46,2.39q21.7,39,43.38,78c13.92,25,27.94,50,41.71,75.05q38.79,70.63,77.34,141.4,11.79,21.57,23.63,43.11c.27.49.56,1,1.06,1.81l69.15-109.82L499,333.63c-28.66,45.55-57.35,91.12-86.29,137.1C350.36,357.56,289.17,244.2,225.94,131.42Z" transform="translate(-6.27 -0.66)"/><path d="M296.1,447.73c-1.6,0-3-.06-4.46,0-1.19.07-1.67-.79-2.29-1.49L268,422.2c-.52-.59-1.08-1.15-1.59-1.7a3.29,3.29,0,0,0-.32.14c-.06,0-.14.09-.16.15a2.63,2.63,0,0,0-.06.48l-.09,25.9a1.76,1.76,0,0,1-.15.39H258V405.87a32.93,32.93,0,0,1,4.78.07,4,4,0,0,1,2,1.44q10.71,12,21.36,24c.52.59,1,1.24,1.43,1.86l.54-.31v-27c2.73-.15,5.24-.08,7.93-.05Z" transform="translate(-6.27 -0.66)"/><path d="M206.14,425.25c.22-7.52,3.78-14.69,12.44-18.52a22.67,22.67,0,0,1,18.65,0c7.23,3.1,11.1,8.89,12.22,16.55a24.2,24.2,0,0,1-.9,11.14,20.4,20.4,0,0,1-17.87,14.21,24.94,24.94,0,0,1-12-1.64C210.82,443.63,206.16,436.18,206.14,425.25Zm35.26,1.2c0-.28,0-1-.08-1.71a13.18,13.18,0,0,0-12.43-12.38,12.79,12.79,0,0,0-13.82,9.75,20,20,0,0,0-.55,6.63,13.38,13.38,0,0,0,18.17,11.72C238.11,438.5,241.38,433.4,241.4,426.45Z" transform="translate(-6.27 -0.66)"/><path d="M333.71,428.91H317.05c0,2.08,0,3.95,0,5.83s0,3.65,0,5.71h17.24a30.81,30.81,0,0,1,.17,7.17H307.8c-.47-1.69-.65-38.58-.19-42.49h26.68c.5,2.21.08,4.48.27,7H317.11a95.85,95.85,0,0,0,0,9.59h16.59Z" transform="translate(-6.27 -0.66)"/><path d="M44.12,405.86h7.66v16.05c5.86.28,11.41.06,17.26.15V406H77v41.63c-2.49.21-5,.07-7.85.08-.11-3.19,0-6.27-.06-9.36s0-6,0-9.16H52c-.23,3.07-.07,6.16-.1,9.24s0,6,0,9.17H44.12Z" transform="translate(-6.27 -0.66)"/><path d="M15.31,432.26v15.29h-9V406.22c.21-.13.34-.28.47-.28,5.67,0,11.35-.18,17,.05,6.61.28,11.37,4.19,12.78,10,1.72,7.15-1.9,13.47-9,15.38a33.12,33.12,0,0,1-6.14.84C19.49,432.36,17.57,432.26,15.31,432.26Zm.11-6.93a57.64,57.64,0,0,0,7.35-.61,5.57,5.57,0,0,0,4.61-5.87,5.65,5.65,0,0,0-4.73-5.55,20.57,20.57,0,0,0-7.23-.2Z" transform="translate(-6.27 -0.66)"/><path d="M100.25,405.94h6.42c5.6,13.77,11.24,27.63,17,41.69H115l-3.55-8.5H95c-1.14,2.72-2.33,5.57-3.56,8.49H82.8Zm-2.61,26.18H109c-1.89-4.91-3.59-9.62-5.75-14.67C101.28,422.64,99.49,427.31,97.64,432.12Z" transform="translate(-6.27 -0.66)"/><path d="M161.77,406h22.34v6.91H169.84v9.35c4.43.12,8.95,0,13.44.07a16,16,0,0,1,.11,7.09H169.78v11.22H184.1a65.57,65.57,0,0,1,.19,7H161.77Z" transform="translate(-6.27 -0.66)"/><path d="M125.66,440.78l4.9-5c.56.76,1,1.42,1.49,2,2.46,2.78,5.48,4.13,9.2,3.21a5.15,5.15,0,0,0,4.15-4.43,5,5,0,0,0-2.48-5.52,38.73,38.73,0,0,0-4.33-2c-1.69-.72-3.45-1.28-5.08-2.12-8.81-4.52-6.58-15.66-1.33-19.53s15.49-3.32,20,2.57l-4,5.33c-.69-.63-1.18-1.13-1.72-1.57a7.49,7.49,0,0,0-7.18-1.57,4.61,4.61,0,0,0-3.48,4.12,3.94,3.94,0,0,0,2.43,4c1.42.72,2.94,1.23,4.41,1.85,1.76.75,3.57,1.4,5.25,2.3a10.61,10.61,0,0,1,5.63,8.16c1.41,9-4.5,15.87-13.58,16.15C133.61,448.93,127.69,444.91,125.66,440.78Z" transform="translate(-6.27 -0.66)"/></g></g></svg>