<svg xmlns="http://www.w3.org/2000/svg" xmlns:xlink="http://www.w3.org/1999/xlink" viewBox="0 0 1458 498">
  <defs>
    <style>
      .cls-1 {
        fill: #8c99a5;
      }

      .cls-2 {
        fill: #455c5b;
      }

      .cls-3 {
        fill: #455c76;
      }

      .cls-4 {
        fill: #a3a097;
      }

      .cls-5 {
        filter: url(#beige);
      }

      .cls-6 {
        filter: url(#blue);
      }

      .cls-7 {
        filter: url(#green);
      }

      .cls-8 {
        filter: url(#grey);
      }
    </style>
    <filter id="grey" x="0" y="0" width="258" height="498" filterUnits="userSpaceOnUse">
      <feOffset dy="3" input="SourceAlpha"/>
      <feGaussianBlur stdDeviation="3" result="blur"/>
      <feFlood flood-opacity="0.161"/>
      <feComposite operator="in" in2="blur"/>
      <feComposite in="SourceGraphic"/>
    </filter>
    <filter id="green" x="400" y="0" width="258" height="338" filterUnits="userSpaceOnUse">
      <feOffset dy="3" input="SourceAlpha"/>
      <feGaussianBlur stdDeviation="3" result="blur-2"/>
      <feFlood flood-opacity="0.161"/>
      <feComposite operator="in" in2="blur-2"/>
      <feComposite in="SourceGraphic"/>
    </filter>
    <filter id="blue" x="800" y="0" width="258" height="418" filterUnits="userSpaceOnUse">
      <feOffset dy="3" input="SourceAlpha"/>
      <feGaussianBlur stdDeviation="3" result="blur-3"/>
      <feFlood flood-opacity="0.161"/>
      <feComposite operator="in" in2="blur-3"/>
      <feComposite in="SourceGraphic"/>
    </filter>
    <filter id="beige" x="1200" y="0" width="258" height="258.006" filterUnits="userSpaceOnUse">
      <feOffset dy="3" input="SourceAlpha"/>
      <feGaussianBlur stdDeviation="3" result="blur-4"/>
      <feFlood flood-opacity="0.161"/>
      <feComposite operator="in" in2="blur-4"/>
      <feComposite in="SourceGraphic"/>
    </filter>
  </defs>
  <g id="front-pixels" transform="translate(-231 -1114)">
    <g class="cls-8" transform="matrix(1, 0, 0, 1, 231, 1114)">
      <path id="grey-2" data-name="grey" class="cls-1" d="M-3954,480V400h80v80Zm-160-240V160h80v80Zm80-80V80h80v80Zm-80-80V0h240V80Z" transform="translate(4123 6)"/>
    </g>
    <g class="cls-7" transform="matrix(1, 0, 0, 1, 231, 1114)">
      <path id="green-2" data-name="green" class="cls-2" d="M-4034,320V240h80v80Zm80-80V160h80v80Zm-80-80V80h160v80Zm-80-80V0h240V80Z" transform="translate(4523 6)"/>
    </g>
    <g class="cls-6" transform="matrix(1, 0, 0, 1, 231, 1114)">
      <path id="blue-2" data-name="blue" class="cls-3" d="M-3954,400V320h80v80Zm-160-80V240h80v80Zm0-80V160h80v80Zm160-80V80h80v80Zm-160-80V0h240V80Z" transform="translate(4923 6)"/>
    </g>
    <g class="cls-5" transform="matrix(1, 0, 0, 1, 231, 1114)">
      <path id="beige-2" data-name="beige" class="cls-4" d="M-4034.7,240.006v-80h80v80ZM-4114,160V80h160v80Zm0-80V0h240V80Z" transform="translate(5323 6)"/>
    </g>
  </g>
</svg>
