<svg xmlns="http://www.w3.org/2000/svg" viewBox="0 0 1638 534.264">
  <defs>
    <style>
      .cls-1 {
        fill: #ddd;
      }
    </style>
  </defs>
  <g id="BACKGROUND" transform="translate(-168 -546)">
    <path id="Union_22" data-name="Union 22" class="cls-1" d="M1092,534.264V328.616h42v0h-42V123.231h126v82.154h-42v82.155h42V534.264Zm-287,0V184.847h35V41.077h84V287.539H882v0h42V534H882V492.924h0V534H847v.264Zm77-82.418v0Zm0-82.154v0ZM420,534.264V328.616h42V164.308h42V534.264Zm-147,0V440.11h42v94.154Zm-42,0V440.11h42v94.154Zm-231,0v-287.8H42V82.154H84V534.264Zm763,0V364.113h42v170.15ZM1512,534V164.308h126V534ZM273,440.11V275.8h42V440.11Zm-42,0V275.8h42V440.11ZM420,328.616V164.308h42V328.616Zm756-41.077V246.461h42v41.078Zm0-41.078V205.385h42v41.077Zm-1176,0V82.154H42V246.461ZM42,82.154V0H84V82.154Zm-42,0V0H42V82.154Z" transform="translate(168 546)"/>
  </g>
</svg>
