<svg xmlns="http://www.w3.org/2000/svg" xmlns:xlink="http://www.w3.org/1999/xlink" viewBox="0 0 1458 538.001">
  <defs>
    <style>
      .cls-1 {
        fill: #a3a097;
      }

      .cls-2 {
        fill: #455c76;
      }

      .cls-3 {
        fill: #455c5b;
      }

      .cls-4 {
        fill: #8c99a5;
      }

      .cls-5 {
        filter: url(#building-grey);
      }

      .cls-6 {
        filter: url(#building-green);
      }

      .cls-7 {
        filter: url(#building-blue);
      }

      .cls-8 {
        filter: url(#building-beige);
      }
    </style>
    <filter id="building-beige" x="1199.999" y="79.999" width="258.001" height="458.001" filterUnits="userSpaceOnUse">
      <feOffset dy="3" input="SourceAlpha"/>
      <feGaussianBlur stdDeviation="3" result="blur"/>
      <feFlood flood-opacity="0.161"/>
      <feComposite operator="in" in2="blur"/>
      <feComposite in="SourceGraphic"/>
    </filter>
    <filter id="building-blue" x="800.001" y="0" width="258" height="538" filterUnits="userSpaceOnUse">
      <feOffset dy="3" input="SourceAlpha"/>
      <feGaussianBlur stdDeviation="3" result="blur-2"/>
      <feFlood flood-opacity="0.161"/>
      <feComposite operator="in" in2="blur-2"/>
      <feComposite in="SourceGraphic"/>
    </filter>
    <filter id="building-green" x="400" y="160" width="258" height="378.001" filterUnits="userSpaceOnUse">
      <feOffset dy="3" input="SourceAlpha"/>
      <feGaussianBlur stdDeviation="3" result="blur-3"/>
      <feFlood flood-opacity="0.161"/>
      <feComposite operator="in" in2="blur-3"/>
      <feComposite in="SourceGraphic"/>
    </filter>
    <filter id="building-grey" x="0" y="79.999" width="258.001" height="458.002" filterUnits="userSpaceOnUse">
      <feOffset dy="3" input="SourceAlpha"/>
      <feGaussianBlur stdDeviation="3" result="blur-4"/>
      <feFlood flood-opacity="0.161"/>
      <feComposite operator="in" in2="blur-4"/>
      <feComposite in="SourceGraphic"/>
    </filter>
  </defs>
  <g id="color-buildings" transform="translate(-231 -554)">
    <g class="cls-8" transform="matrix(1, 0, 0, 1, 231, 554)">
      <path id="building-beige-2" data-name="building-beige" class="cls-1" d="M-3956.914,597.777h-66.019V379.97l27.718-38.15,93.958,14.881-55.657,241.075Zm173.982,0h-157.561l55.078-238.566,102.484,16.232Zm0-238.534-201.728-31.95,112.743-155.178,88.984,113.894v73.235Zm-240-6.493h0V157.776h139.816l.953,1.22-140.769,193.752Zm240-92.727v0h0l-79.2-101.371.633-.871h78.567V260.018h0Z" transform="translate(5231.93 -71.78)"/>
    </g>
    <g class="cls-7" transform="matrix(1, 0, 0, 1, 231, 554)">
      <path id="building-blue-2" data-name="building-blue" class="cls-2" d="M-3834.425,570.591h-240v-174.8l63.917-209.062L-3834.425,412.1V570.59Zm0-184.481-60.213-77.07,60.213-7.393v84.463Zm-240-45.05h0V104.913l51.891,66.417-51.889,169.722Zm168.292-46.728h0L-4004.8,168.043l35.909-117.453h134.463V285.526l-71.706,8.8Zm-110.692-141.678v0h0l-57.6-73.726V50.59h88.8l-31.2,102.06v0h0v0Z" transform="translate(4883.43 -44.59)"/>
    </g>
    <g class="cls-6" transform="matrix(1, 0, 0, 1, 231, 554)">
      <path id="building-green-2" data-name="building-green" class="cls-3" d="M-3677.788,660.214h-187.25l187.25-231.234V660.213Zm-207.838,0h-32.161V338.507l176.762,143.139-144.6,178.567Zm154.67-191L-3835.807,384.3l68.1-84.092h89.923V403.554l-53.168,65.657Zm-117.285-94.977-69.546-56.317V300.213H-3788.3l-59.942,74.022Z" transform="translate(4326.79 -134.21)"/>
    </g>
    <g class="cls-5" transform="matrix(1, 0, 0, 1, 231, 554)">
      <path id="building-grey-2" data-name="building-grey" class="cls-4" d="M-3683.9,457.555h-240V413.523l213.147-149.247,26.854,21.745V457.554Zm-240-63.564h0V183.722l68.616-36.484,131.6,106.564L-3923.9,393.991Zm240-128.558h0l-156.035-126.355L-3683.9,56.112v209.32h0v0Zm-240-99.832h0V91.674l55.109,44.626-55.109,29.3Zm70.457-37.462L-3923.9,71.084V17.553h240V37.99l-169.544,90.148Z" transform="translate(3932.9 68.45)"/>
    </g>
  </g>
</svg>
