<svg xmlns="http://www.w3.org/2000/svg" viewBox="0 0 1512 432.001">
  <defs>
    <style>
      .cls-1 {
        fill: #8c99a5;
      }

      .cls-2 {
        fill: #455c5b;
      }

      .cls-3 {
        fill: #455c76;
      }

      .cls-4 {
        fill: #a3a097;
      }
    </style>
  </defs>
  <g id="FOREGROUND" transform="translate(-216 -648)">
    <path id="Subtraction_7" data-name="Subtraction 7" class="cls-1" d="M92.714,350H51V303.692l15.016-20.254L92.713,350Zm174.567,0H99.722L70.564,277.3,237.3,52.4l29.978,33.842V350ZM51,291.582h0V0H190.886l41.529,46.88L51,291.581ZM267.281,74.968h0l-25.428-28.7,25.43-34.3ZM236.963,40.746h0L200.87,0h66.3L236.964,40.745Z" transform="translate(165 730)"/>
    <g id="BUILDING-2">
      <path id="Subtraction_3" data-name="Subtraction 3" class="cls-2" d="M603.372,689.745h-216v-1.776L506.4,464.116l96.976,138.495v87.133Zm-216-20.945V294.131L500.6,455.842Zm216-81.876v0h0L433.559,344.4l54.15-86.659h7.662v0h108V586.919h0ZM427.95,336.4h0l-40.579-57.953v-20.7H477.1l-49.146,78.65Z" transform="translate(260.628 390.256)"/>
    </g>
    <g id="BUILDING-3" transform="translate(0.268)">
      <path id="Subtraction_4" data-name="Subtraction 4" class="cls-3" d="M212.526,324H0V303.4l187.8-60.858,24.72,35.143V324ZM0,294.195H0v-168.1L58.569,58.809,70.842,76.258v0L182.535,235.045,0,294.194Zm212.525-28.818v0h0L70.842,63.951,63.356,53.308l7.487-8.6L109.758,0H212.526V265.373h0v0ZM0,114.823v0H0V0H70.842V33.439ZM70.842,33.439V0H99.95L70.843,33.438Z" transform="translate(1079.999 756)"/>
    </g>
    <g id="BUILDING-4">
      <path id="Subtraction_5" data-name="Subtraction 5" class="cls-4" d="M358.921,472.5h-97.9L177.38,242.7l82.213-66.575,99.328,64.5V472.5Zm-107.482,0H142.921V270.609L169.982,248.7ZM142.921,259.028V100.362l108.735,70.614-84.044,68.058-1.013.368.127.348-23.8,19.276Zm216-29.123v0h0l-91.972-59.728L358.921,95.7V229.9h0v0ZM259.01,165.021h0L142.921,89.631V40.5h216V84.115L259.01,165.02Z" transform="translate(1369.079 607.504)"/>
    </g>
  </g>
</svg>
