<svg id="Layer_1" data-name="Layer 1" xmlns="http://www.w3.org/2000/svg" viewBox="0 0 1617.6 228.81"><defs><style>.cls-1{isolation:isolate;}.cls-2{fill:#1f2a36;}</style></defs><title>landing-title</title><g id="landing-title" class="cls-1"><g class="cls-1"><path class="cls-2" d="M152.83,27.84q21.46,19.3,21.46,52.64a87.29,87.29,0,0,1-7.39,35.81q-7.41,16.7-24.07,27.41T99.76,154.43H69.6V222h-42V8.56H92.22Q131.37,8.56,152.83,27.84Zm-34.22,80.33a31.49,31.49,0,0,0,10.44-12.61,34.45,34.45,0,0,0,3.19-13.92,40.47,40.47,0,0,0-6.67-21.89Q118.9,49.16,99.76,49.16H69.6v64.38H99.47Q111.37,113.54,118.61,108.17Z" transform="translate(-27.55 -0.15)"/><path class="cls-2" d="M391.5,222H349.45V135.29H254V222H212V8.56h42V94.69h95.41V8.56H391.5Z" transform="translate(-27.55 -0.15)"/><path class="cls-2" d="M552.15,180.24H481.39L464,222H422.52L518.8.15h2.32L617.4,222H568.68Zm-13.92-35.38L517.64,93l-21.46,51.91Z" transform="translate(-27.55 -0.15)"/><path class="cls-2" d="M714,44.81q-13.92,0-21.6,5.51t-7.69,16.53q0,10.16,11.17,17.83t29.72,14.65A123.14,123.14,0,0,1,751.38,112a56.49,56.49,0,0,1,17.84,19.57q7.1,12.47,7.1,31.61a57.79,57.79,0,0,1-8.55,30.59q-8.57,14.07-25.09,22.33t-39.44,8.27a131.92,131.92,0,0,1-38-5.65,119,119,0,0,1-35.09-17.26l18.56-32.77A101.1,101.1,0,0,0,674,182q14.2,5.22,25.52,5.22,13.34,0,23.2-5.66t9.86-18.41q0-16.53-31-28.71a276.54,276.54,0,0,1-30.45-13.92,62.63,62.63,0,0,1-21-19.14Q641.18,88.9,641.18,70q0-27.56,18.13-44.37T707.59,7.4q23.77,0,39.73,5.36a136,136,0,0,1,31,15.23l-16,32.19Q734.56,44.81,714,44.81Z" transform="translate(-27.55 -0.15)"/><path class="cls-2" d="M963.08,8.56v40.6H859.55V94.69h91.64v40.6H859.55V181.4H967.14V222H817.5V8.56Z" transform="translate(-27.55 -0.15)"/></g><g class="cls-1"><path class="cls-2" d="M1014.7,64a110,110,0,0,1,39-39.29,104.78,104.78,0,0,1,106.87,0A110.87,110.87,0,0,1,1199.86,64a102.66,102.66,0,0,1,14.65,53.36A104,104,0,0,1,1200,171a107.15,107.15,0,0,1-39.3,39,106.62,106.62,0,0,1-160.51-92.65A103.37,103.37,0,0,1,1014.7,64Zm24.94,93.38a78.29,78.29,0,0,0,28.56,29,76.34,76.34,0,0,0,39.59,10.73,75.44,75.44,0,0,0,39.29-10.59,76.39,76.39,0,0,0,28.13-29,80.94,80.94,0,0,0,10.3-40.16A80.87,80.87,0,0,0,1175.07,77a78.14,78.14,0,0,0-28.42-29.29A75.6,75.6,0,0,0,1107.21,37a74.76,74.76,0,0,0-39.44,10.88,78,78,0,0,0-28.28,29.43,81.79,81.79,0,0,0-10.29,40.31A78.7,78.7,0,0,0,1039.64,157.33Z" transform="translate(-27.55 -0.15)"/><path class="cls-2" d="M1444.47,12.33V229h-.86l-154-156.31L1290.2,222h-28.42V6h1.44L1416.92,164l-.58-151.67Z" transform="translate(-27.55 -0.15)"/><path class="cls-2" d="M1641.09,12.33v27H1532.92v63.8h96.57v27h-96.57v64.67h112.23V222H1504.79V12.33Z" transform="translate(-27.55 -0.15)"/></g></g></svg>