<svg id="Layer_1" data-name="Layer 1" xmlns="http://www.w3.org/2000/svg" viewBox="0 0 789.67 75.45"><defs><style>.cls-1{isolation:isolate;}.cls-2{fill:#1f2a36;}</style></defs><title>tagline-dark</title><g id="tagline-dark" class="cls-1"><g class="cls-1"><path class="cls-2" d="M52.88,31.77a9.47,9.47,0,0,1,2.77,6.72V61H51.93V39.28a7.46,7.46,0,0,0-1.85-4.74,6.77,6.77,0,0,0-4.94-2.06,10.82,10.82,0,0,0-5.69,1.58,12.38,12.38,0,0,0-4.22,4.23,12,12,0,0,0-1.78,5.8V61H29.73V39.28a7.33,7.33,0,0,0-1.89-4.74,6.9,6.9,0,0,0-5-2.06,11.23,11.23,0,0,0-5.77,1.58,11.63,11.63,0,0,0-4.26,4.35,11.8,11.8,0,0,0-1.58,6V61H7.54V30.11h3.23l.32,6.8A13.11,13.11,0,0,1,16.3,31.3a14.66,14.66,0,0,1,7.59-2.06,10.33,10.33,0,0,1,6.4,2,7.72,7.72,0,0,1,3.16,5.17,13,13,0,0,1,5.17-5.29,14.58,14.58,0,0,1,7.31-1.9A9.54,9.54,0,0,1,52.88,31.77Z" transform="translate(-7.54 -0.64)"/><path class="cls-2" d="M99.81,30.11V61H96.09V54.44a14.61,14.61,0,0,1-5.53,5.1,16.77,16.77,0,0,1-16.07.08,14.75,14.75,0,0,1-5.69-5.69,16.63,16.63,0,0,1-2.09-8.41,16.83,16.83,0,0,1,2.17-8.73,14.65,14.65,0,0,1,6-5.65,18.59,18.59,0,0,1,8.65-2A13.64,13.64,0,0,1,90.8,31.3a14.31,14.31,0,0,1,5.29,5.53l.4-6.72ZM92.14,55.23a11.61,11.61,0,0,0,4-8.29V42.51a12.56,12.56,0,0,0-4.58-7.26,12.87,12.87,0,0,0-8.29-2.93,13.15,13.15,0,0,0-6.48,1.62,11.89,11.89,0,0,0-4.62,4.58,13.46,13.46,0,0,0-1.7,6.84,12.88,12.88,0,0,0,1.74,6.56,13,13,0,0,0,4.7,4.77,12.23,12.23,0,0,0,6.44,1.78A12.81,12.81,0,0,0,92.14,55.23Z" transform="translate(-7.54 -0.64)"/><path class="cls-2" d="M122.87,31.53a15.64,15.64,0,0,1,7.59-2.29l-.16,3.64a13.48,13.48,0,0,0-6.4,1.54,11.79,11.79,0,0,0-4.62,4.26,11.11,11.11,0,0,0-1.7,6V61h-3.71V30.11h3.24l.31,7.35A12.93,12.93,0,0,1,122.87,31.53Z" transform="translate(-7.54 -0.64)"/><path class="cls-2" d="M149.81,44.09l-5.21,4.59V61h-3.71V1h3.71V44.65l17.3-15.17,2.29,2L152.34,41.88,166.09,61h-4.35Z" transform="translate(-7.54 -0.64)"/><path class="cls-2" d="M197.37,55l1.9,2.68a19.09,19.09,0,0,1-5.18,2.89,16.63,16.63,0,0,1-5.8,1.06,16.92,16.92,0,0,1-8.5-2.13A15.23,15.23,0,0,1,174,53.69a16.33,16.33,0,0,1-2.1-8.25,15.78,15.78,0,0,1,2.22-8.18,16.41,16.41,0,0,1,6-6,16.12,16.12,0,0,1,8.29-2.22,13.88,13.88,0,0,1,9.17,3.16,18,18,0,0,1,5.53,8.54L176.67,51a12.67,12.67,0,0,0,11.69,7.42A13.65,13.65,0,0,0,197.37,55ZM181.73,34a12.45,12.45,0,0,0-4.58,4.7,13.26,13.26,0,0,0-1.66,6.6,12.16,12.16,0,0,0,.31,2.92l22.76-8.92a13.14,13.14,0,0,0-4.19-5.1,10.4,10.4,0,0,0-6.24-1.94A12.28,12.28,0,0,0,181.73,34Z" transform="translate(-7.54 -0.64)"/><path class="cls-2" d="M220.2,16.52v14h9.56v3H220.2V61h-3.79V33.51h-6.56v-3h6.56v-14Z" transform="translate(-7.54 -0.64)"/><path class="cls-2" d="M239,16.88a2.81,2.81,0,0,1,1.94-.75,2.64,2.64,0,0,1,1.89.75,2.45,2.45,0,0,1,.79,1.86,2.53,2.53,0,0,1-.79,1.93,2.64,2.64,0,0,1-1.89.75,2.72,2.72,0,0,1-1.94-.79,2.53,2.53,0,0,1-.83-1.89A2.42,2.42,0,0,1,239,16.88Zm3.68,13.23V61H239V30.11Z" transform="translate(-7.54 -0.64)"/><path class="cls-2" d="M280.32,31.81a9.33,9.33,0,0,1,2.84,6.68V61h-3.79V39.51a7.6,7.6,0,0,0-2-5,7.06,7.06,0,0,0-5.22-2,11.51,11.51,0,0,0-10.07,5.73,11.9,11.9,0,0,0-1.62,6.2V61h-3.71V30.11H260l.31,6.87a11.68,11.68,0,0,1,5.1-5.64,15.43,15.43,0,0,1,7.94-2.1A9.66,9.66,0,0,1,280.32,31.81Z" transform="translate(-7.54 -0.64)"/><path class="cls-2" d="M327.72,30.11V61.47a14.16,14.16,0,0,1-4.15,10.47q-4.14,4.16-12.6,4.15a18.69,18.69,0,0,1-7.43-1.46,24.37,24.37,0,0,1-7-4.86l2.21-2.53a20.38,20.38,0,0,0,6.09,4.31,15.31,15.31,0,0,0,5.92,1.22q6.79,0,9.88-3.08a11.78,11.78,0,0,0,3.24-8.3l.08-7.26a15.13,15.13,0,0,1-5.81,5.45A16.75,16.75,0,0,1,310,61.63a15.31,15.31,0,0,1-7.94-2.13,15.82,15.82,0,0,1-5.72-5.85,16.87,16.87,0,0,1,.08-16.59,15.62,15.62,0,0,1,6-5.8,17,17,0,0,1,8.37-2.1,15.92,15.92,0,0,1,7.74,2,13.31,13.31,0,0,1,5.53,5.33l.32-6.4ZM317.25,56.93a13.26,13.26,0,0,0,4.7-4.15A11.2,11.2,0,0,0,324,47.17V42.59a12.4,12.4,0,0,0-4.63-7.38A13.19,13.19,0,0,0,311,32.32,13.6,13.6,0,0,0,304.33,34a12.13,12.13,0,0,0-4.7,4.62,13.38,13.38,0,0,0-1.69,6.76,12.87,12.87,0,0,0,1.73,6.56,13.06,13.06,0,0,0,4.74,4.77A12.6,12.6,0,0,0,311,58.47,13.09,13.09,0,0,0,317.25,56.93Z" transform="translate(-7.54 -0.64)"/><path class="cls-2" d="M368.09,33.59h-5.38v-3.4h5.38V14.63q0-7.28,2.52-10.63c1.69-2.24,4.24-3.36,7.67-3.36a9.45,9.45,0,0,1,4.66,1.19l-1.58,2.68a4.49,4.49,0,0,0-2.77-.79,5.73,5.73,0,0,0-5.13,2.49q-1.66,2.49-1.66,8.34V30.19h10.35v3.4H371.8V61h-3.71Z" transform="translate(-7.54 -0.64)"/><path class="cls-2" d="M389.61,37.18a15.93,15.93,0,0,1,6-5.92,17.18,17.18,0,0,1,16.75,0,15.65,15.65,0,0,1,5.92,5.92,16.29,16.29,0,0,1,2.13,8.18,16.09,16.09,0,0,1-8.09,14.1,16.48,16.48,0,0,1-8.42,2.17,17,17,0,0,1-8.41-2.09,15.29,15.29,0,0,1-5.89-5.81,16.49,16.49,0,0,1-2.13-8.37A16,16,0,0,1,389.61,37.18ZM392.85,52a12.52,12.52,0,0,0,4.62,4.74,12.64,12.64,0,0,0,12.8,0A12.52,12.52,0,0,0,414.89,52a13,13,0,0,0,1.7-6.55,13.25,13.25,0,0,0-1.7-6.6,12.56,12.56,0,0,0-4.62-4.78,12.28,12.28,0,0,0-6.4-1.74,11.77,11.77,0,0,0-6.47,1.86A13.37,13.37,0,0,0,392.81,39a13.32,13.32,0,0,0,0,13Z" transform="translate(-7.54 -0.64)"/><path class="cls-2" d="M440.45,31.53A15.64,15.64,0,0,1,448,29.24l-.15,3.64a13.45,13.45,0,0,0-6.4,1.54,11.79,11.79,0,0,0-4.62,4.26,11,11,0,0,0-1.7,6V61h-3.72V30.11h3.24l.32,7.35A12.82,12.82,0,0,1,440.45,31.53Z" transform="translate(-7.54 -0.64)"/><path class="cls-2" d="M489.59,16.52v14h9.56v3h-9.56V61h-3.8V33.51h-6.55v-3h6.55v-14Z" transform="translate(-7.54 -0.64)"/><path class="cls-2" d="M531.93,31.81a9.33,9.33,0,0,1,2.84,6.68V61H531V39.51a7.6,7.6,0,0,0-2-5,7,7,0,0,0-5.22-2A11.2,11.2,0,0,0,518,34.06a12.11,12.11,0,0,0-4.31,4.31,11.58,11.58,0,0,0-1.62,6V61h-3.71V1H512V36.51a13.74,13.74,0,0,1,5.22-5.21A14.89,14.89,0,0,1,525,29.24,9.66,9.66,0,0,1,531.93,31.81Z" transform="translate(-7.54 -0.64)"/><path class="cls-2" d="M571.35,55l1.9,2.68a19.09,19.09,0,0,1-5.18,2.89,16.63,16.63,0,0,1-5.8,1.06,16.92,16.92,0,0,1-8.5-2.13,15.23,15.23,0,0,1-5.84-5.81,16.33,16.33,0,0,1-2.1-8.25,15.78,15.78,0,0,1,2.22-8.18,16.41,16.41,0,0,1,6-6,16.12,16.12,0,0,1,8.29-2.22,13.88,13.88,0,0,1,9.17,3.16A18,18,0,0,1,577,40.78L550.65,51a12.67,12.67,0,0,0,11.69,7.42A13.63,13.63,0,0,0,571.35,55ZM555.71,34a12.45,12.45,0,0,0-4.58,4.7,13.26,13.26,0,0,0-1.66,6.6,12.16,12.16,0,0,0,.31,2.92l22.76-8.92a13,13,0,0,0-4.19-5.1,10.4,10.4,0,0,0-6.24-1.94A12.28,12.28,0,0,0,555.71,34Z" transform="translate(-7.54 -0.64)"/><path class="cls-2" d="M613.62,33.59h-5.38v-3.4h5.38V14.63q0-7.28,2.52-10.63c1.69-2.24,4.24-3.36,7.67-3.36a9.45,9.45,0,0,1,4.66,1.19l-1.58,2.68a4.49,4.49,0,0,0-2.77-.79A5.72,5.72,0,0,0,619,6.21q-1.66,2.49-1.66,8.34V30.19h10.35v3.4H617.33V61h-3.71Z" transform="translate(-7.54 -0.64)"/><path class="cls-2" d="M663.31,30.11V61H660l-.24-6.56a12.06,12.06,0,0,1-5.13,5.34,15.36,15.36,0,0,1-7.75,2.09A9.53,9.53,0,0,1,640,59.3a9.39,9.39,0,0,1-2.8-6.67V30.11h3.71V51.52a6.89,6.89,0,0,0,7.27,7.11,10.89,10.89,0,0,0,5.65-1.58A11.72,11.72,0,0,0,658,52.71a12.16,12.16,0,0,0,1.58-6.17V30.11Z" transform="translate(-7.54 -0.64)"/><path class="cls-2" d="M684.24,16.52v14h9.56v3h-9.56V61h-3.79V33.51h-6.56v-3h6.56v-14Z" transform="translate(-7.54 -0.64)"/><path class="cls-2" d="M729.19,30.11V61h-3.32l-.23-6.56a12.14,12.14,0,0,1-5.14,5.34,15.3,15.3,0,0,1-7.74,2.09A9.21,9.21,0,0,1,703,52.63V30.11h3.71V51.52a7.63,7.63,0,0,0,2,5.06A7.47,7.47,0,0,0,714,58.63a10.87,10.87,0,0,0,5.65-1.58,11.83,11.83,0,0,0,4.23-4.34,12.27,12.27,0,0,0,1.58-6.17V30.11Z" transform="translate(-7.54 -0.64)"/><path class="cls-2" d="M752.26,31.53a15.61,15.61,0,0,1,7.58-2.29l-.16,3.64a13.51,13.51,0,0,0-6.4,1.54,11.79,11.79,0,0,0-4.62,4.26,11.11,11.11,0,0,0-1.7,6V61h-3.71V30.11h3.24l.32,7.35A12.82,12.82,0,0,1,752.26,31.53Z" transform="translate(-7.54 -0.64)"/><path class="cls-2" d="M791.52,55l1.9,2.68a19.09,19.09,0,0,1-5.18,2.89,16.63,16.63,0,0,1-5.8,1.06,16.92,16.92,0,0,1-8.5-2.13,15.23,15.23,0,0,1-5.84-5.81,16.33,16.33,0,0,1-2.1-8.25,15.78,15.78,0,0,1,2.22-8.18,16.41,16.41,0,0,1,6-6,16.12,16.12,0,0,1,8.29-2.22,13.88,13.88,0,0,1,9.17,3.16,18,18,0,0,1,5.53,8.54L770.82,51a12.67,12.67,0,0,0,11.69,7.42A13.65,13.65,0,0,0,791.52,55ZM775.88,34a12.45,12.45,0,0,0-4.58,4.7,13.26,13.26,0,0,0-1.66,6.6A12.16,12.16,0,0,0,770,48.2l22.76-8.92a13,13,0,0,0-4.19-5.1,10.4,10.4,0,0,0-6.24-1.94A12.28,12.28,0,0,0,775.88,34Z" transform="translate(-7.54 -0.64)"/></g></g></svg>