<svg xmlns="http://www.w3.org/2000/svg" xmlns:xlink="http://www.w3.org/1999/xlink" viewBox="0 0 1920 789"><defs><style>.cls-1{fill:url(#linear-gradient);}</style><linearGradient id="linear-gradient" x1="960" x2="960" y2="789" gradientUnits="userSpaceOnUse"><stop offset="0" stop-color="#e6e6e6"/><stop offset="0.11" stop-color="#e6e6e6"/><stop offset="0.41" stop-color="#e3e3e3"/><stop offset="0.63" stop-color="#dadada"/><stop offset="0.82" stop-color="#cacaca"/><stop offset="0.99" stop-color="#b4b4b4"/><stop offset="1" stop-color="#b3b3b3"/></linearGradient></defs><title>background</title><g id="Layer_2" data-name="Layer 2"><g id="Background"><polygon class="cls-1" points="1836.23 472.16 1836.23 0 1725.65 0 1725.65 462.67 1684.31 459.12 1684.31 243.88 1587.16 243.88 1587.16 450.78 1553.06 447.85 1553.06 130.86 1455.91 130.86 1455.91 300.39 1388.73 300.39 1388.73 433.74 1326.72 428.42 1326.72 90.71 1232.67 90.71 1232.67 420.34 1171.69 415.11 1171.69 46.1 1077.64 46.1 1077.64 368.6 1036.3 368.6 1036.3 285.52 942.25 285.52 942.25 148.71 848.21 148.71 848.21 387.33 630.14 368.61 630.14 144.59 536.09 144.59 536.09 360.54 396.56 348.56 396.56 46.78 302.52 46.78 302.52 340.48 229.14 334.18 229.14 252.28 135.09 252.28 135.09 326.11 0 314.51 0 789 1920 789 1920 479.35 1836.23 472.16"/></g></g></svg>