<svg xmlns="http://www.w3.org/2000/svg" xmlns:xlink="http://www.w3.org/1999/xlink" viewBox="0 0 1920 236"><defs><style>.cls-1{fill:url(#linear-gradient);}</style><linearGradient id="linear-gradient" x1="960" x2="960" y2="236" gradientUnits="userSpaceOnUse"><stop offset="0" stop-color="gray"/><stop offset="1" stop-color="#4d4d4d"/></linearGradient></defs><title>foremost</title><g id="Layer_2" data-name="Layer 2"><g id="Layer_6" data-name="Layer 6"><path class="cls-1" d="M0,236c0-3.67,1920,0,1920,0V158h-27V86h-88v61h-45V99h-76v35h-60V108H1473V52h-84V84h-25v62h-92V132h-83V45h-66V84h-67v70H998V118H928V0H856V151H797V132H736V100H682v32H550V8H457v96H406v56H345V59H253v83H171V102H107.25v77H77V162H32v40H0Z"/></g></g></svg>