<svg xmlns="http://www.w3.org/2000/svg" xmlns:xlink="http://www.w3.org/1999/xlink" viewBox="0 0 1920 359"><defs><style>.cls-1{fill:url(#linear-gradient);}.cls-2{fill:url(#linear-gradient-2);}.cls-3{fill:url(#linear-gradient-3);}.cls-4{fill:url(#linear-gradient-4);}.cls-5{fill:url(#linear-gradient-5);}.cls-6{fill:url(#linear-gradient-6);}.cls-7{fill:url(#linear-gradient-7);}</style><linearGradient id="linear-gradient" x1="164.56" y1="40.62" x2="164.56" y2="359" gradientUnits="userSpaceOnUse"><stop offset="0" stop-color="#b3b3b3"/><stop offset="0.44" stop-color="#9f9f9f"/><stop offset="1" stop-color="gray"/></linearGradient><linearGradient id="linear-gradient-2" x1="502.61" y1="40.62" x2="502.61" xlink:href="#linear-gradient"/><linearGradient id="linear-gradient-3" x1="763.95" y1="140.53" x2="763.95" xlink:href="#linear-gradient"/><linearGradient id="linear-gradient-4" x1="1015.2" y1="23.3" x2="1015.2" xlink:href="#linear-gradient"/><linearGradient id="linear-gradient-5" x1="1350.62" y1="0" x2="1350.62" xlink:href="#linear-gradient"/><linearGradient id="linear-gradient-6" x1="1618.75" y1="99.23" x2="1618.75" xlink:href="#linear-gradient"/><linearGradient id="linear-gradient-7" x1="1815.9" y1="118" x2="1815.9" xlink:href="#linear-gradient"/></defs><title>foreground</title><g id="Layer_2" data-name="Layer 2"><g id="Foreground"><polygon class="cls-1" points="258.66 232.45 178.75 232.45 178.75 40.62 98.84 40.62 98.84 140.53 0 140.53 0 359 98.84 359 178.75 359 258.66 359 329.11 359 329.11 167.17 258.66 167.17 258.66 232.45"/><polygon class="cls-2" points="523.64 219.13 483.68 219.13 483.68 40.62 384.84 40.62 384.84 359 483.68 359 523.64 359 620.37 359 620.37 91.24 523.64 91.24 523.64 219.13"/><polygon class="cls-3" points="771.28 140.53 671.89 140.53 671.89 359 771.28 359 856 359 856 219.13 771.28 219.13 771.28 140.53"/><polygon class="cls-4" points="1026.24 23.3 917.94 23.3 917.94 359 1026.24 359 1112.46 359 1112.46 135.2 1026.24 135.2 1026.24 23.3"/><polygon class="cls-5" points="1386.9 205.14 1301.73 205.14 1301.73 0 1196.58 0 1196.58 359 1301.73 359 1386.9 359 1504.67 359 1504.67 52.57 1386.9 52.57 1386.9 205.14"/><rect class="cls-6" x="1573.01" y="99.23" width="91.48" height="259.77"/><polygon class="cls-7" points="1815.9 118 1815.9 231.95 1711.81 231.95 1711.81 359 1815.9 359 1920 359 1920 118 1815.9 118"/></g></g></svg>