<svg id="Layer_1" data-name="Layer 1" xmlns="http://www.w3.org/2000/svg" viewBox="0 0 1617.55 228.85">
  <defs>
    <style>
      .cls-1 {
        fill: #F3F0F1;
      }
    </style>
  </defs>
  <title>landing-title</title>
  <g id="landing-title">
    <g>
      <path class="cls-1" d="M125.28,27.69Q146.75,47,146.74,80.33a87.4,87.4,0,0,1-7.39,35.81q-7.41,16.69-24.07,27.41T72.21,154.28H42.05v67.57H.05V8.41H64.67Q103.82,8.41,125.28,27.69ZM91.06,108A31.52,31.52,0,0,0,101.5,95.41a34.55,34.55,0,0,0,3.19-13.92A40.47,40.47,0,0,0,98,59.6Q91.35,49,72.21,49H42.05v64.38H71.92Q83.82,113.39,91.06,108Z" transform="translate(-0.05)"/>
      <path class="cls-1" d="M364,221.85H321.9V135.14H226.45v86.71h-42V8.41h42V94.54h95.41V8.41H364Z" transform="translate(-0.05)"/>
      <path class="cls-1" d="M524.6,180.09H453.84l-17.39,41.76H395L491.25,0h2.32l96.28,221.85H541.13Zm-13.92-35.38L490.09,92.85l-21.46,51.91Z" transform="translate(-0.05)"/>
      <path class="cls-1" d="M686.45,44.66q-13.92,0-21.6,5.51T657.16,66.7q0,10.15,11.17,17.83t29.72,14.65a123.18,123.18,0,0,1,25.78,12.67,56.56,56.56,0,0,1,17.84,19.57q7.1,12.47,7.1,31.61a57.82,57.82,0,0,1-8.55,30.59q-8.57,14.07-25.09,22.33t-39.44,8.27a131.88,131.88,0,0,1-38-5.65,118.92,118.92,0,0,1-35.09-17.26l18.56-32.77a101.27,101.27,0,0,0,25.29,13.31q14.2,5.22,25.52,5.22,13.34,0,23.2-5.66T705,163q0-16.53-31-28.71a276.73,276.73,0,0,1-30.45-13.92,62.73,62.73,0,0,1-21-19.14q-9-12.48-9-31.38,0-27.55,18.13-44.37T680,7.25q23.78,0,39.73,5.36a136.09,136.09,0,0,1,31,15.23L734.77,60Q707,44.66,686.45,44.66Z" transform="translate(-0.05)"/>
      <path class="cls-1" d="M935.53,8.41V49H832V94.54h91.64v40.6H832v46.11H939.59v40.6H790V8.41Z" transform="translate(-0.05)"/>
    </g>
    <g>
      <path class="cls-1" d="M987.15,63.85a110,110,0,0,1,39-39.29,104.79,104.79,0,0,1,106.87,0,110.87,110.87,0,0,1,39.29,39.29A102.64,102.64,0,0,1,1187,117.21a104,104,0,0,1-14.51,53.64A107,107,0,0,1,972.64,117.2,103.36,103.36,0,0,1,987.15,63.85Zm24.94,93.38a78.29,78.29,0,0,0,28.56,29A76.37,76.37,0,0,0,1080.24,197a75.42,75.42,0,0,0,39.29-10.59,76.35,76.35,0,0,0,28.13-29,81,81,0,0,0,10.3-40.16,80.82,80.82,0,0,0-10.44-40.36,78.1,78.1,0,0,0-28.42-29.29,75.61,75.61,0,0,0-39.44-10.71,74.81,74.81,0,0,0-39.44,10.88,78,78,0,0,0-28.28,29.43,81.79,81.79,0,0,0-10.29,40.31,78.67,78.67,0,0,0,10.44,39.71Z" transform="translate(-0.05)"/>
      <path class="cls-1" d="M1416.92,12.18V228.85h-.86l-154-156.31.59,149.31h-28.42V5.85h1.44l153.7,158-.58-151.67Z" transform="translate(-0.05)"/>
      <path class="cls-1" d="M1613.54,12.18v27H1505.37V103h96.57v27h-96.57v64.67H1617.6v27.2H1477.24V12.18Z" transform="translate(-0.05)"/>
    </g>
  </g>
</svg>
