<svg xmlns="http://www.w3.org/2000/svg" viewBox="0 0 579.85 291.65"><defs><style>.cls-1{isolation:isolate;}.cls-2{fill:#1f2a36;}</style></defs><title>header-md</title><g id="Layer_2" data-name="Layer 2"><g id="Layer_1-2" data-name="Layer 1"><g id="PHASE_ONE" data-name="PHASE ONE" class="cls-1"><g class="cls-1"><path class="cls-2" d="M82.84,16.9Q95.93,28.68,95.93,49a53.3,53.3,0,0,1-4.51,21.86A38.11,38.11,0,0,1,76.73,87.62q-10.19,6.54-26.28,6.54H32v41.25H6.37V5.13H45.84Q69.74,5.13,82.84,16.9ZM62,65.93a19.2,19.2,0,0,0,6.37-7.7,21,21,0,0,0,2-8.49A24.81,24.81,0,0,0,66.2,36.37q-4.08-6.45-15.75-6.46H32v39.3H50.27Q57.52,69.21,62,65.93Z"/><path class="cls-2" d="M228.5,135.41H202.84V82.48H144.61v52.93H118.94V5.13h25.67V57.7h58.23V5.13H228.5Z"/><path class="cls-2" d="M326.56,109.92H283.37l-10.62,25.49H247.44L306.21,0h1.41l58.77,135.41H336.65Zm-8.5-21.6L305.5,56.64,292.4,88.32Z"/><path class="cls-2" d="M425.33,27.26q-8.5,0-13.19,3.36t-4.69,10.09q0,6.2,6.81,10.89a85.35,85.35,0,0,0,18.15,8.93,76,76,0,0,1,15.75,7.7,34.74,34.74,0,0,1,10.89,12q4.33,7.62,4.33,19.29a35.29,35.29,0,0,1-5.22,18.68,36.46,36.46,0,0,1-15.31,13.63q-10.1,5-24.07,5a80.35,80.35,0,0,1-23.19-3.45,72.44,72.44,0,0,1-21.42-10.53l11.33-20A61.54,61.54,0,0,0,400.9,111a45.91,45.91,0,0,0,15.58,3.19,28,28,0,0,0,14.16-3.46q6-3.45,6-11.24,0-10.08-18.93-17.52a170.34,170.34,0,0,1-18.59-8.49A38.22,38.22,0,0,1,386.3,61.77q-5.4-7.6-5.4-19.11,0-16.81,11.06-27.08T421.43,4.42q14.52,0,24.25,3.28A82.86,82.86,0,0,1,464.62,17l-9.73,19.65Q437.9,27.27,425.33,27.26Z"/><path class="cls-2" d="M577.37,5.13V29.91H514.18V57.7h55.93V82.48H514.18v28.15h65.67v24.78H488.51V5.13Z"/></g><g class="cls-1"><path class="cls-2" d="M8.85,190.94a67.13,67.13,0,0,1,23.81-24A62.46,62.46,0,0,1,65.31,158,62.62,62.62,0,0,1,97.88,167a67.68,67.68,0,0,1,24,24,62.65,62.65,0,0,1,8.94,32.57A63.4,63.4,0,0,1,122,256.25a65.35,65.35,0,0,1-24,23.81,64.08,64.08,0,0,1-32.66,8.76,65.22,65.22,0,0,1-56.55-32.3,64.13,64.13,0,0,1-8.76-33A63.13,63.13,0,0,1,8.85,190.94Zm15.22,57a47.69,47.69,0,0,0,17.44,17.7,46.5,46.5,0,0,0,24.16,6.55,46.09,46.09,0,0,0,24-6.46A46.57,46.57,0,0,0,106.82,248a50.83,50.83,0,0,0-.09-49.11A47.71,47.71,0,0,0,89.39,181a46.11,46.11,0,0,0-24.08-6.55,45.61,45.61,0,0,0-24.07,6.64,47.56,47.56,0,0,0-17.26,18,49.87,49.87,0,0,0-6.28,24.61A48,48,0,0,0,24.07,247.93Z"/><path class="cls-2" d="M271.16,159.43V291.65h-.53l-94-95.4.35,91.16H159.65V155.54h.89L254.35,252,254,159.43Z"/><path class="cls-2" d="M391.17,159.43V175.9h-66v38.93h58.94V231.3H325.15v39.47h68.5v16.64H308v-128Z"/></g></g></g></g></svg>