<svg id="Layer_1" data-name="Layer 1" xmlns="http://www.w3.org/2000/svg" viewBox="0 0 1086.78 102.18"><defs><style>.cls-1{isolation:isolate;}.cls-2{fill:#1f2a36;}</style></defs><title>landing-subtitle</title><g id="landing-subtitle" class="cls-1"><g class="cls-1"><path class="cls-2" d="M70.94,51.89A12.88,12.88,0,0,1,74.69,61V91.48h-5V62.06a10.15,10.15,0,0,0-2.52-6.42,9.13,9.13,0,0,0-6.68-2.78A14.55,14.55,0,0,0,52.75,55,16.83,16.83,0,0,0,47,60.72a16.29,16.29,0,0,0-2.41,7.87V91.48h-5V62.06A10,10,0,0,0,37,55.64a9.33,9.33,0,0,0-6.74-2.78A15.1,15.1,0,0,0,22.47,55a15.76,15.76,0,0,0-5.78,5.88A16.09,16.09,0,0,0,14.55,69V91.48h-5V49.65h4.39l.43,9.2a17.72,17.72,0,0,1,7.06-7.6,19.87,19.87,0,0,1,10.27-2.78,14.05,14.05,0,0,1,8.67,2.73,10.48,10.48,0,0,1,4.28,7,17.54,17.54,0,0,1,7-7.17,19.8,19.8,0,0,1,9.89-2.57A13,13,0,0,1,70.94,51.89Z" transform="translate(-9.52 -9.74)"/><path class="cls-2" d="M134.5,49.65V91.48h-5V82.6A19.75,19.75,0,0,1,122,89.5a22.69,22.69,0,0,1-21.78.11,20.06,20.06,0,0,1-7.7-7.7,22.64,22.64,0,0,1-2.84-11.4,22.74,22.74,0,0,1,3-11.82A19.73,19.73,0,0,1,100.74,51a25.23,25.23,0,0,1,11.72-2.68,18.6,18.6,0,0,1,9.84,2.89,19.56,19.56,0,0,1,7.17,7.49l.53-9.09Zm-10.38,34a15.79,15.79,0,0,0,5.35-11.23v-6a17,17,0,0,0-6.21-9.85,17.41,17.41,0,0,0-11.23-4,17.85,17.85,0,0,0-8.78,2.2A16.14,16.14,0,0,0,97,61a18.33,18.33,0,0,0-2.3,9.26,17.41,17.41,0,0,0,2.36,8.88,17.85,17.85,0,0,0,6.36,6.47,16.61,16.61,0,0,0,8.72,2.41A17.36,17.36,0,0,0,124.12,83.67Z" transform="translate(-9.52 -9.74)"/><path class="cls-2" d="M165.74,51.57A21.18,21.18,0,0,1,176,48.47l-.21,4.92a18.33,18.33,0,0,0-8.67,2.09,16.08,16.08,0,0,0-6.26,5.78,15,15,0,0,0-2.3,8.07V91.48h-5V49.65h4.39l.43,10A17.47,17.47,0,0,1,165.74,51.57Z" transform="translate(-9.52 -9.74)"/><path class="cls-2" d="M202.23,68.59l-7.06,6.2V91.48h-5V10.16h5V69.33L218.6,48.79l3.1,2.68-16,14.12,18.62,25.89h-5.89Z" transform="translate(-9.52 -9.74)"/><path class="cls-2" d="M266.64,83.35,269.21,87a25.62,25.62,0,0,1-7,3.91,22.59,22.59,0,0,1-7.86,1.44,22.85,22.85,0,0,1-11.51-2.89,20.6,20.6,0,0,1-7.91-7.86,22.11,22.11,0,0,1-2.84-11.18,21.41,21.41,0,0,1,3-11.08,22.26,22.26,0,0,1,8.13-8.08,22,22,0,0,1,11.23-3,18.71,18.71,0,0,1,12.41,4.28,24.31,24.31,0,0,1,7.49,11.55L238.61,77.9a17.18,17.18,0,0,0,15.83,10A18.43,18.43,0,0,0,266.64,83.35ZM245.45,54.89a16.85,16.85,0,0,0-6.2,6.37A17.92,17.92,0,0,0,237,70.19a16.17,16.17,0,0,0,.43,4l30.82-12.09a17.74,17.74,0,0,0-5.68-6.9,14,14,0,0,0-8.45-2.62A16.65,16.65,0,0,0,245.45,54.89Z" transform="translate(-9.52 -9.74)"/><path class="cls-2" d="M297.56,31.24V50.18h12.95v4.07H297.56V91.48h-5.13V54.25h-8.88V50.18h8.88V31.24Z" transform="translate(-9.52 -9.74)"/><path class="cls-2" d="M323.08,31.72a3.81,3.81,0,0,1,2.62-1,3.62,3.62,0,0,1,2.57,1,3.35,3.35,0,0,1,1.07,2.52,3.47,3.47,0,0,1-1.07,2.62,3.59,3.59,0,0,1-2.57,1,3.69,3.69,0,0,1-2.62-1.07A3.43,3.43,0,0,1,322,34.24,3.26,3.26,0,0,1,323.08,31.72Zm5,17.93V91.48h-5V49.65Z" transform="translate(-9.52 -9.74)"/><path class="cls-2" d="M379,52a12.66,12.66,0,0,1,3.85,9V91.48h-5.13V62.38A10.36,10.36,0,0,0,375,55.59,9.53,9.53,0,0,0,368,52.86a15.72,15.72,0,0,0-7.87,2,15.54,15.54,0,0,0-5.77,5.73,16,16,0,0,0-2.2,8.39V91.48h-5V49.65h4.39l.43,9.31a15.84,15.84,0,0,1,6.9-7.65,21,21,0,0,1,10.75-2.84A13.06,13.06,0,0,1,379,52Z" transform="translate(-9.52 -9.74)"/><path class="cls-2" d="M443.19,49.65V92.13a19.19,19.19,0,0,1-5.62,14.17q-5.61,5.63-17.07,5.62a25.14,25.14,0,0,1-10.05-2,32.58,32.58,0,0,1-9.42-6.58l3-3.42a27.39,27.39,0,0,0,8.24,5.83,20.65,20.65,0,0,0,8,1.66q9.19,0,13.37-4.18T438.05,92l.11-9.84a20.58,20.58,0,0,1-7.86,7.38,22.78,22.78,0,0,1-11.08,2.78,20.62,20.62,0,0,1-10.75-2.89,21.37,21.37,0,0,1-7.76-7.92,22.91,22.91,0,0,1,.11-22.47A21.17,21.17,0,0,1,409,51.2a23.05,23.05,0,0,1,11.34-2.84,21.72,21.72,0,0,1,10.49,2.73,18.2,18.2,0,0,1,7.49,7.22l.42-8.66ZM429,86a18.06,18.06,0,0,0,6.37-5.61,15.19,15.19,0,0,0,2.78-7.6V66.55a16.76,16.76,0,0,0-6.26-10,18,18,0,0,0-11.4-3.91,18.22,18.22,0,0,0-9,2.25,16.25,16.25,0,0,0-6.37,6.26,18.1,18.1,0,0,0-2.3,9.15,17.4,17.4,0,0,0,2.35,8.88,17.7,17.7,0,0,0,6.42,6.47,17.07,17.07,0,0,0,8.88,2.41A17.67,17.67,0,0,0,429,86Z" transform="translate(-9.52 -9.74)"/><path class="cls-2" d="M497.86,54.36h-7.27V49.75h7.27V28.68c0-6.57,1.14-11.36,3.43-14.4S507,9.74,511.67,9.74a12.79,12.79,0,0,1,6.31,1.6L515.84,15a6,6,0,0,0-3.75-1.07c-3.14,0-5.45,1.12-7,3.37s-2.25,6-2.25,11.29V49.75h14v4.61h-14V91.48h-5Z" transform="translate(-9.52 -9.74)"/><path class="cls-2" d="M527,59.22a21.6,21.6,0,0,1,8.08-8,23.34,23.34,0,0,1,22.68,0,21.18,21.18,0,0,1,8,8A22.1,22.1,0,0,1,568.7,70.3a21.81,21.81,0,0,1-11,19.1,22.36,22.36,0,0,1-11.4,2.94,22.87,22.87,0,0,1-11.39-2.84,20.48,20.48,0,0,1-8-7.86,22.3,22.3,0,0,1-2.89-11.34A21.74,21.74,0,0,1,527,59.22Zm4.39,20.07a17.15,17.15,0,0,0,6.26,6.42,17.15,17.15,0,0,0,17.33,0,17.15,17.15,0,0,0,6.26-6.42,17.76,17.76,0,0,0,2.3-8.88,18.09,18.09,0,0,0-2.3-8.94A17.07,17.07,0,0,0,555,55a16.66,16.66,0,0,0-8.67-2.36,16,16,0,0,0-8.77,2.52,18,18,0,0,0-6.21,6.58,18.1,18.1,0,0,0,.06,17.55Z" transform="translate(-9.52 -9.74)"/><path class="cls-2" d="M595.87,51.57a21.22,21.22,0,0,1,10.28-3.1l-.22,4.92a18.26,18.26,0,0,0-8.66,2.09A16,16,0,0,0,591,61.26a14.91,14.91,0,0,0-2.3,8.07V91.48h-5V49.65h4.38l.43,10A17.47,17.47,0,0,1,595.87,51.57Z" transform="translate(-9.52 -9.74)"/><path class="cls-2" d="M662.43,31.24V50.18h12.94v4.07H662.43V91.48h-5.14V54.25h-8.88V50.18h8.88V31.24Z" transform="translate(-9.52 -9.74)"/><path class="cls-2" d="M719.78,52a12.66,12.66,0,0,1,3.85,9V91.48h-5.14V62.38a10.3,10.3,0,0,0-2.67-6.79,9.53,9.53,0,0,0-7.06-2.73A15.1,15.1,0,0,0,701,55a16.21,16.21,0,0,0-5.83,5.83,15.65,15.65,0,0,0-2.2,8.18V91.48h-5V10.16h4.92V58.31a18.71,18.71,0,0,1,7.07-7.06,20.23,20.23,0,0,1,10.48-2.78A13.06,13.06,0,0,1,719.78,52Z" transform="translate(-9.52 -9.74)"/><path class="cls-2" d="M773.17,83.35,775.74,87a25.62,25.62,0,0,1-7,3.91,22.59,22.59,0,0,1-7.86,1.44,22.85,22.85,0,0,1-11.51-2.89,20.67,20.67,0,0,1-7.91-7.86,22.21,22.21,0,0,1-2.84-11.18,21.41,21.41,0,0,1,3-11.08,22.26,22.26,0,0,1,8.13-8.08,22,22,0,0,1,11.23-3,18.75,18.75,0,0,1,12.42,4.28,24.39,24.39,0,0,1,7.49,11.55L745.14,77.9A17.18,17.18,0,0,0,761,88,18.43,18.43,0,0,0,773.17,83.35ZM752,54.89a16.93,16.93,0,0,0-6.2,6.37,17.92,17.92,0,0,0-2.25,8.93,16.17,16.17,0,0,0,.43,4l30.82-12.09a17.8,17.8,0,0,0-5.67-6.9,14.1,14.1,0,0,0-8.46-2.62A16.65,16.65,0,0,0,752,54.89Z" transform="translate(-9.52 -9.74)"/><path class="cls-2" d="M830.42,54.36h-7.28V49.75h7.28V28.68c0-6.57,1.14-11.36,3.42-14.4s5.74-4.54,10.38-4.54a12.76,12.76,0,0,1,6.31,1.6L848.39,15a6,6,0,0,0-3.74-1.07q-4.71,0-7,3.37t-2.25,11.29V49.75h14v4.61h-14V91.48h-5Z" transform="translate(-9.52 -9.74)"/><path class="cls-2" d="M897.72,49.65V91.48h-4.5l-.32-8.88A16.24,16.24,0,0,1,886,89.83a20.78,20.78,0,0,1-10.49,2.83,12.87,12.87,0,0,1-9.36-3.48,12.73,12.73,0,0,1-3.8-9V49.65h5v29A10.24,10.24,0,0,0,870,85.49c1.65,1.71,4,2.64,7.17,2.78a14.65,14.65,0,0,0,7.65-2.14,15.86,15.86,0,0,0,5.73-5.88,16.5,16.5,0,0,0,2.14-8.35V49.65Z" transform="translate(-9.52 -9.74)"/><path class="cls-2" d="M926.07,31.24V50.18H939v4.07H926.07V91.48h-5.14V54.25h-8.88V50.18h8.88V31.24Z" transform="translate(-9.52 -9.74)"/><path class="cls-2" d="M987,49.65V91.48h-4.49l-.32-8.88a16.32,16.32,0,0,1-7,7.23,20.74,20.74,0,0,1-10.48,2.83,12.89,12.89,0,0,1-9.37-3.48,12.72,12.72,0,0,1-3.79-9V49.65h5v29a10.29,10.29,0,0,0,2.68,6.85q2.46,2.57,7.17,2.78a14.65,14.65,0,0,0,7.65-2.14,15.86,15.86,0,0,0,5.73-5.88,16.6,16.6,0,0,0,2.13-8.35V49.65Z" transform="translate(-9.52 -9.74)"/><path class="cls-2" d="M1018.2,51.57a21.15,21.15,0,0,1,10.27-3.1l-.22,4.92a18.29,18.29,0,0,0-8.66,2.09,16,16,0,0,0-6.26,5.78,14.91,14.91,0,0,0-2.3,8.07V91.48h-5V49.65h4.39l.42,10A17.44,17.44,0,0,1,1018.2,51.57Z" transform="translate(-9.52 -9.74)"/><path class="cls-2" d="M1071.38,83.35l2.56,3.64a25.47,25.47,0,0,1-7,3.91,22.54,22.54,0,0,1-7.86,1.44,22.82,22.82,0,0,1-11.5-2.89,20.69,20.69,0,0,1-7.92-7.86,22.21,22.21,0,0,1-2.84-11.18,21.41,21.41,0,0,1,3-11.08,22.41,22.41,0,0,1,8.13-8.08,22,22,0,0,1,11.24-3,18.72,18.72,0,0,1,12.41,4.28,24.39,24.39,0,0,1,7.49,11.55L1043.34,77.9a17.18,17.18,0,0,0,15.84,10A18.45,18.45,0,0,0,1071.38,83.35Zm-21.19-28.46a16.88,16.88,0,0,0-6.21,6.37,17.92,17.92,0,0,0-2.24,8.93,16.7,16.7,0,0,0,.42,4L1073,62.06a17.72,17.72,0,0,0-5.67-6.9,14.06,14.06,0,0,0-8.45-2.62A16.65,16.65,0,0,0,1050.19,54.89Z" transform="translate(-9.52 -9.74)"/><path class="cls-2" d="M1090.21,85.28a3.38,3.38,0,0,1,2.46-1.07,3.58,3.58,0,0,1,2.51,1.07,3.48,3.48,0,0,1,0,5.13,3.54,3.54,0,0,1-2.51,1.07,3.63,3.63,0,0,1-2.46-6.2Z" transform="translate(-9.52 -9.74)"/></g></g></svg>