<svg xmlns="http://www.w3.org/2000/svg" xmlns:xlink="http://www.w3.org/1999/xlink" viewBox="0 0 1920 554.48"><defs><style>.cls-1{fill:url(#linear-gradient);}.cls-2{fill:url(#linear-gradient-2);}.cls-3{fill:url(#linear-gradient-3);}.cls-4{fill:url(#linear-gradient-4);}.cls-5{fill:url(#linear-gradient-5);}.cls-6{fill:url(#linear-gradient-6);}.cls-7{fill:url(#linear-gradient-7);}.cls-8{fill:url(#linear-gradient-8);}.cls-9{fill:url(#linear-gradient-9);}.cls-10{fill:url(#linear-gradient-10);}.cls-11{fill:url(#linear-gradient-11);}.cls-12{fill:url(#linear-gradient-12);}.cls-13{fill:url(#linear-gradient-13);}.cls-14{fill:url(#linear-gradient-14);}.cls-15{fill:url(#linear-gradient-15);}.cls-16{fill:url(#linear-gradient-16);}.cls-17{fill:url(#linear-gradient-17);}.cls-18{fill:url(#linear-gradient-18);}.cls-19{fill:url(#linear-gradient-19);}</style><linearGradient id="linear-gradient" x1="61.07" x2="61.07" y2="553.86" gradientUnits="userSpaceOnUse"><stop offset="0" stop-color="#ccc"/><stop offset="1" stop-color="#999"/></linearGradient><linearGradient id="linear-gradient-2" x1="144.97" y1="418.09" x2="144.97" y2="553.86" xlink:href="#linear-gradient"/><linearGradient id="linear-gradient-3" x1="293.94" y1="465.5" x2="293.94" y2="553.86" xlink:href="#linear-gradient"/><linearGradient id="linear-gradient-4" x1="528.51" y1="487.06" x2="528.51" y2="553.86" xlink:href="#linear-gradient"/><linearGradient id="linear-gradient-5" x1="700.31" y1="437.49" x2="700.31" y2="553.86" xlink:href="#linear-gradient"/><linearGradient id="linear-gradient-6" x1="860.69" y1="330.81" x2="860.69" y2="553.86" xlink:href="#linear-gradient"/><linearGradient id="linear-gradient-7" x1="1131.8" y1="452.57" x2="1131.8" y2="553.86" xlink:href="#linear-gradient"/><linearGradient id="linear-gradient-8" x1="1557" y1="452.57" x2="1557" y2="553.86" xlink:href="#linear-gradient"/><linearGradient id="linear-gradient-9" x1="1734.51" y1="487.06" x2="1734.51" y2="553.86" xlink:href="#linear-gradient"/><linearGradient id="linear-gradient-10" x1="1899.45" y1="470.89" x2="1899.45" y2="553.86" xlink:href="#linear-gradient"/><linearGradient id="linear-gradient-11" x1="1385.78" y1="452.57" x2="1385.78" y2="553.86" xlink:href="#linear-gradient"/><linearGradient id="linear-gradient-12" x1="221.45" y1="218.88" x2="221.45" y2="553.86" xlink:href="#linear-gradient"/><linearGradient id="linear-gradient-13" x1="403.52" y1="117.45" x2="403.52" y2="553.86" xlink:href="#linear-gradient"/><linearGradient id="linear-gradient-14" x1="614.7" y1="81.41" x2="614.7" y2="553.86" xlink:href="#linear-gradient"/><linearGradient id="linear-gradient-15" x1="785.92" y1="41.37" x2="785.92" y2="553.86" xlink:href="#linear-gradient"/><linearGradient id="linear-gradient-16" x1="1672.05" y1="130" x2="1672.05" y2="554.48" xlink:href="#linear-gradient"/><linearGradient id="linear-gradient-17" x1="1826.97" y1="226.42" x2="1826.97" y2="553.4" xlink:href="#linear-gradient"/><linearGradient id="linear-gradient-18" x1="987.4" y1="133.46" x2="987.4" y2="553.86" xlink:href="#linear-gradient"/><linearGradient id="linear-gradient-19" x1="1372.66" y1="218" x2="1372.66" y2="553.86" xlink:href="#linear-gradient"/></defs><title>midground</title><g id="Layer_2" data-name="Layer 2"><g id="Midground"><rect class="cls-1" width="122.14" height="553.86"/><rect class="cls-2" x="122.14" y="418.09" width="45.66" height="135.77"/><rect class="cls-3" x="275.1" y="465.5" width="37.67" height="88.36"/><rect class="cls-4" x="494.27" y="487.06" width="68.49" height="66.81"/><rect class="cls-5" x="666.63" y="437.49" width="67.35" height="116.38"/><rect class="cls-6" x="837.86" y="330.81" width="45.66" height="223.05"/><rect class="cls-7" x="1091.27" y="452.57" width="81.05" height="101.29"/><rect class="cls-8" x="1523.9" y="452.57" width="66.21" height="101.29"/><rect class="cls-9" x="1693.98" y="487.06" width="81.05" height="66.81"/><rect class="cls-10" x="1878.91" y="470.89" width="41.09" height="82.97"/><rect class="cls-11" x="1327.56" y="452.57" width="116.43" height="101.29"/><rect class="cls-12" x="167.8" y="218.88" width="107.3" height="334.99"/><polygon class="cls-13" points="420.07 117.45 312.77 117.45 312.77 553.86 420.07 553.86 494.27 553.86 494.27 269.59 420.07 269.59 420.07 117.45"/><rect class="cls-14" x="562.76" y="81.41" width="103.88" height="472.45"/><rect class="cls-15" x="733.98" y="41.37" width="103.88" height="512.49"/><rect class="cls-16" x="1590.11" y="130" width="163.89" height="424.48"/><rect class="cls-17" x="1775.03" y="226.42" width="103.88" height="326.98"/><polygon class="cls-18" points="987.4 256.25 883.52 256.25 883.52 553.86 987.4 553.86 1091.27 553.86 1091.27 133.46 987.4 133.46 987.4 256.25"/><polygon class="cls-19" points="1472.83 218 1354.45 218 1354.45 417.82 1172.32 417.82 1172.32 553.86 1355.75 553.86 1355.75 552.8 1472.83 552.8 1472.83 553.86 1573 553.86 1573 417.82 1472.83 417.82 1472.83 218"/></g></g></svg>